<?xml version="1.0" encoding="UTF-8" standalone="no"?><!DOCTYPE svg PUBLIC "-//W3C//DTD SVG 1.1//EN" "http://www.w3.org/Graphics/SVG/1.1/DTD/svg11.dtd"><svg width="100%" height="100%" viewBox="0 0 512 512" version="1.1" xmlns="http://www.w3.org/2000/svg" xmlns:xlink="http://www.w3.org/1999/xlink" xml:space="preserve" xmlns:serif="http://www.serif.com/" style="fill-rule:evenodd;clip-rule:evenodd;stroke-linejoin:round;stroke-miterlimit:2;"><g transform="matrix(340.234513,0,0,340.234513,-12.726788,373.040673)"><path d="M0.082,-0l0,-0.688l0.347,0c0.047,0 0.085,0.007 0.113,0.022c0.028,0.014 0.047,0.035 0.059,0.063c0.012,0.028 0.018,0.062 0.018,0.104c0,0.041 -0.004,0.073 -0.013,0.097c-0.009,0.024 -0.022,0.043 -0.04,0.055c-0.018,0.012 -0.039,0.022 -0.065,0.029l0,0.004c0.023,0.005 0.043,0.013 0.058,0.022c0.015,0.009 0.027,0.023 0.036,0.042c0.009,0.019 0.014,0.045 0.017,0.08l0.011,0.171l-0.141,-0l-0.011,-0.152c-0.001,-0.017 -0.003,-0.031 -0.005,-0.044c-0.002,-0.013 -0.007,-0.023 -0.013,-0.032c-0.006,-0.009 -0.016,-0.015 -0.03,-0.02c-0.014,-0.004 -0.033,-0.007 -0.056,-0.007l-0.194,0l0.053,-0.053l0,0.307l-0.142,-0Zm0.142,-0.369l0.138,0c0.032,0 0.057,-0.003 0.073,-0.009c0.016,-0.006 0.027,-0.017 0.032,-0.032c0.005,-0.015 0.007,-0.035 0.007,-0.06c0,-0.019 -0.001,-0.036 -0.003,-0.049c-0.002,-0.013 -0.006,-0.024 -0.013,-0.031c-0.007,-0.007 -0.018,-0.013 -0.033,-0.016c-0.015,-0.003 -0.035,-0.005 -0.06,-0.005l-0.141,0l0,0.203Z" style="fill:url(#_Linear1);fill-rule:nonzero;"/></g><g transform="matrix(340.234513,0,0,340.234513,-12.726788,373.040673)"></g><g transform="matrix(340.234513,0,0,340.234513,218.972916,373.040673)"><path d="M0.082,-0l0,-0.688l0.195,0l0.17,0.454l0.006,0l0.17,-0.454l0.194,0l0,0.688l-0.137,-0l0,-0.479l-0.005,0l-0.179,0.479l-0.098,-0l-0.178,-0.479l-0.005,0l0,0.479l-0.133,-0Z" style="fill:url(#_Linear2);fill-rule:nonzero;"/></g><g transform="matrix(340.234513,0,0,340.234513,524.843743,373.040673)"></g><defs><linearGradient id="_Linear1" x1="0" y1="0" x2="1" y2="0" gradientUnits="userSpaceOnUse" gradientTransform="matrix(1.428456,1.598175,-1.788059,1.598175,0.241911,-1.598175)"><stop offset="0" style="stop-color:#ffaa87;stop-opacity:1"/><stop offset="0.5" style="stop-color:#ffcaa9;stop-opacity:1"/><stop offset="1" style="stop-color:#ff8d87;stop-opacity:1"/></linearGradient><linearGradient id="_Linear2" x1="0" y1="0" x2="1" y2="0" gradientUnits="userSpaceOnUse" gradientTransform="matrix(1.428456,1.598175,-1.788059,1.598175,-0.439089,-1.598175)"><stop offset="0" style="stop-color:#ffaa87;stop-opacity:1"/><stop offset="0.5" style="stop-color:#ffcaa9;stop-opacity:1"/><stop offset="1" style="stop-color:#ff8d87;stop-opacity:1"/></linearGradient></defs></svg>