<?xml version="1.0" encoding="UTF-8" standalone="no"?><!DOCTYPE svg PUBLIC "-//W3C//DTD SVG 1.1//EN" "http://www.w3.org/Graphics/SVG/1.1/DTD/svg11.dtd"><svg width="100%" height="100%" viewBox="0 0 2048 2048" version="1.1" xmlns="http://www.w3.org/2000/svg" xmlns:xlink="http://www.w3.org/1999/xlink" xml:space="preserve" xmlns:serif="http://www.serif.com/" style="fill-rule:evenodd;clip-rule:evenodd;stroke-linejoin:round;stroke-miterlimit:2;"><path d="M328.177,-419.676c254.543,14.8 501.936,577.114 122.514,969.216c-476.89,492.827 -353.308,1538.489 -607.319,1516.363c-254.011,-22.126 -481.262,-2541.747 484.805,-2485.578Z" style="fill:url(#_Linear1);"/><path d="M328.177,-419.676c254.543,14.8 501.936,577.114 122.514,969.216c-476.89,492.827 -353.308,1538.489 -607.319,1516.363c-254.011,-22.126 -481.262,-2541.747 484.805,-2485.578Zm-0.174,2.995c-230.61,-13.408 -392.734,120.936 -502.652,332.908c-165.568,319.29 -212.813,814.405 -196.29,1248.903c12.85,337.899 64.269,639.152 128.804,792.519c16.43,39.045 33.662,68.44 51.371,86.251c11.346,11.412 22.81,18.005 34.396,19.014c37,3.223 65.605,-17.118 89.31,-55.245c24.282,-39.054 43.352,-96.582 60.583,-167.111c40.421,-165.452 70.532,-402.155 132.266,-640.619c61.86,-238.951 155.481,-479.633 322.744,-652.485c226.633,-234.206 228.663,-529.407 139.26,-731.283c-59.343,-133.999 -158.872,-226.984 -259.792,-232.852Z" style="fill:url(#_Linear2);"/><path d="M1080.864,-275.294c394.608,-16.153 1027.583,-191.114 1170.944,463.253c102.687,468.709 558.629,1540.528 164.021,1556.681c-394.608,16.153 -530.839,-876.928 -1071.086,-1273.012c-540.247,-396.085 -658.487,-730.769 -263.879,-746.922Z" style="fill:url(#_Linear3);"/><path d="M1080.864,-275.294c394.608,-16.153 1027.583,-191.114 1170.944,463.253c102.687,468.709 558.629,1540.528 164.021,1556.681c-394.608,16.153 -530.839,-876.928 -1071.086,-1273.012c-540.247,-396.085 -658.487,-730.769 -263.879,-746.922Zm0.123,2.997c-116.904,4.785 -188.421,37.428 -216.588,91.977c-18.686,36.189 -18.113,81.867 0.663,135.012c47.646,134.864 212.004,316.966 481.455,514.515c324.473,237.889 503.467,654.795 679.978,946.83c58.611,96.971 116.933,180.131 180.303,238.224c62.915,57.676 130.776,90.579 208.909,87.38c116.763,-4.78 157.308,-103.712 155.124,-251.739c-5.163,-350.028 -250.104,-973.352 -321.953,-1301.302c-34.247,-156.319 -96.504,-265.122 -176.875,-339.943c-120.586,-112.257 -281.846,-147.984 -449.879,-153.325c-187.455,-5.959 -383.357,25.911 -541.137,32.37Z" style="fill:url(#_Linear4);"/><defs><linearGradient id="_Linear1" x1="0" y1="0" x2="1" y2="0" gradientUnits="userSpaceOnUse" gradientTransform="matrix(-469.786758,1611.18757,-1611.18757,-469.786758,306.060342,0)"><stop offset="0" style="stop-color:#0040de;stop-opacity:0.2"/><stop offset="1" style="stop-color:#0040de;stop-opacity:0"/></linearGradient><linearGradient id="_Linear2" x1="0" y1="0" x2="1" y2="0" gradientUnits="userSpaceOnUse" gradientTransform="matrix(619.57384,-1724.430573,1724.430573,619.57384,-152.37891,1744.856084)"><stop offset="0" style="stop-color:#0056de;stop-opacity:0"/><stop offset="1" style="stop-color:#0056de;stop-opacity:0.4"/></linearGradient><linearGradient id="_Linear3" x1="0" y1="0" x2="1" y2="0" gradientUnits="userSpaceOnUse" gradientTransform="matrix(1223.261172,1432.782979,-1432.782979,1223.261172,1261.520367,-0)"><stop offset="0" style="stop-color:#0040de;stop-opacity:0.2"/><stop offset="1" style="stop-color:#0040de;stop-opacity:0"/></linearGradient><linearGradient id="_Linear4" x1="0" y1="0" x2="1" y2="0" gradientUnits="userSpaceOnUse" gradientTransform="matrix(-1230.069676,-1490.076794,1490.076794,-1230.069676,2414.427,1490.076794)"><stop offset="0" style="stop-color:#0056de;stop-opacity:0"/><stop offset="1" style="stop-color:#0056de;stop-opacity:0.4"/></linearGradient></defs></svg>