<?xml version="1.0" encoding="UTF-8" standalone="no"?><!DOCTYPE svg PUBLIC "-//W3C//DTD SVG 1.1//EN" "http://www.w3.org/Graphics/SVG/1.1/DTD/svg11.dtd"><svg width="100%" height="100%" viewBox="0 0 2048 2048" version="1.1" xmlns="http://www.w3.org/2000/svg" xmlns:xlink="http://www.w3.org/1999/xlink" xml:space="preserve" xmlns:serif="http://www.serif.com/" style="fill-rule:evenodd;clip-rule:evenodd;stroke-linejoin:round;stroke-miterlimit:2;"><path d="M2192.042,263.996c221.378,110.777 222.888,2182.134 -504.113,2309.588c-727.002,127.455 -1992.249,-228.891 -2010.212,-475.787c-17.963,-246.895 1307.224,-47.598 1945.12,-418.899c593.308,-345.348 513.493,-1442.781 569.205,-1414.903Z" style="fill:url(#_Linear1);"/><path d="M2192.042,263.996c221.378,110.777 222.888,2182.134 -504.113,2309.588c-727.002,127.455 -1992.249,-228.891 -2010.212,-475.787c-17.963,-246.895 1307.224,-47.598 1945.12,-418.899c593.308,-345.348 513.493,-1442.781 569.205,-1414.903Zm-1.342,2.683c-0.737,-0.369 -1.364,-0.037 -1.985,0.633c-0.943,1.017 -1.798,2.566 -2.648,4.58c-5.876,13.927 -9.977,47.532 -14.672,95.686c-16.263,166.796 -38.602,506.517 -156.469,811.346c-78.746,203.655 -200.127,391.71 -390.579,502.567c-446.849,260.098 -1230.682,240.58 -1654.619,290.099c-108.423,12.665 -193.197,29.789 -242.493,57.46c-31.79,17.845 -48.601,40.005 -46.525,68.53c2.112,29.024 22.009,59.474 56.288,90.582c52.306,47.466 137.988,96.129 246.624,142.618c423.524,181.241 1195.393,328.98 1703.79,239.85c173.62,-30.438 305.3,-172.494 402.406,-372.056c146.22,-300.496 213.881,-731.344 226.791,-1110.556c10.038,-294.854 -13.018,-558.491 -58.115,-705.311c-11.504,-37.453 -24.421,-67.257 -38.622,-87.941c-9.216,-13.423 -18.925,-22.959 -29.172,-28.087Z" style="fill:url(#_Linear2);"/><path d="M-356.566,2225.369c-394.548,42.763 -30.09,-617.949 535.824,-754.697c551.177,-133.187 271.672,119.955 513.016,217.424c354,142.966 477.151,100.373 106.673,500.936c-370.478,400.563 -782.839,-4.055 -1155.514,36.337Z" style="fill:url(#_Linear3);"/><path d="M-356.566,2225.369c-394.548,42.763 -30.09,-617.949 535.824,-754.697c551.177,-133.187 271.672,119.955 513.016,217.424c354,142.966 477.151,100.373 106.673,500.936c-370.478,400.563 -782.839,-4.055 -1155.514,36.337Zm-0.323,-2.983c186.653,-20.23 383.273,70.844 579.59,116.958c194.993,45.802 389.742,46.92 574.045,-152.349c110.87,-119.873 177.465,-199.926 206.778,-257.16c19.004,-37.106 22.233,-64.294 11.086,-86.525c-11.254,-22.444 -36.835,-39.665 -74.412,-56.944c-57.522,-26.45 -142.902,-52.621 -249.046,-95.488c-97.778,-39.488 -111.277,-104.101 -127.851,-158.911c-7.22,-23.876 -14.984,-45.851 -31.188,-62.744c-18.882,-19.685 -49.194,-32.304 -103.054,-33.367c-54.83,-1.082 -133.7,9.848 -249.095,37.733c-338.463,81.786 -604.712,351.499 -678.544,545.054c-24.286,63.667 -27.798,118.962 -5.518,156.249c22.19,37.137 69.901,55.875 147.21,47.496Z" style="fill:url(#_Linear4);"/><defs><linearGradient id="_Linear1" x1="0" y1="0" x2="1" y2="0" gradientUnits="userSpaceOnUse" gradientTransform="matrix(-1394.382064,801.851018,-801.851018,-1394.382064,2221.68815,1458.218416)"><stop offset="0" style="stop-color:#0040de;stop-opacity:0.2"/><stop offset="1" style="stop-color:#0040de;stop-opacity:0"/></linearGradient><linearGradient id="_Linear2" x1="0" y1="0" x2="1" y2="0" gradientUnits="userSpaceOnUse" gradientTransform="matrix(2594.712625,-1084.678947,1084.678947,2594.712625,-154.571285,2367.518951)"><stop offset="0" style="stop-color:#0056de;stop-opacity:0"/><stop offset="1" style="stop-color:#0056de;stop-opacity:0.4"/></linearGradient><linearGradient id="_Linear3" x1="0" y1="0" x2="1" y2="0" gradientUnits="userSpaceOnUse" gradientTransform="matrix(551.942901,457.822111,-457.822111,551.942901,356.702139,1493.490473)"><stop offset="0" style="stop-color:#0040de;stop-opacity:0.2"/><stop offset="1" style="stop-color:#0040de;stop-opacity:0"/></linearGradient><linearGradient id="_Linear4" x1="0" y1="0" x2="1" y2="0" gradientUnits="userSpaceOnUse" gradientTransform="matrix(-623.985974,-510.009888,510.009888,-623.985974,732.023311,2066.247554)"><stop offset="0" style="stop-color:#0056de;stop-opacity:0"/><stop offset="1" style="stop-color:#0056de;stop-opacity:0.4"/></linearGradient></defs></svg>